<svg id="visual" viewBox="0 0 900 600" width="900" height="600" xmlns="http://www.w3.org/2000/svg" xmlns:xlink="http://www.w3.org/1999/xlink" version="1.1"><rect x="0" y="0" width="900" height="600" fill="#30092d"></rect><defs><linearGradient id="grad1_0" x1="33.3%" y1="0%" x2="100%" y2="100%"><stop offset="20%" stop-color="#ff5060" stop-opacity="1"></stop><stop offset="80%" stop-color="#ff5060" stop-opacity="1"></stop></linearGradient></defs><defs><linearGradient id="grad1_1" x1="33.3%" y1="0%" x2="100%" y2="100%"><stop offset="20%" stop-color="#ff5060" stop-opacity="1"></stop><stop offset="80%" stop-color="#b92e5e" stop-opacity="1"></stop></linearGradient></defs><defs><linearGradient id="grad1_2" x1="33.3%" y1="0%" x2="100%" y2="100%"><stop offset="20%" stop-color="#71194c" stop-opacity="1"></stop><stop offset="80%" stop-color="#b92e5e" stop-opacity="1"></stop></linearGradient></defs><defs><linearGradient id="grad1_3" x1="33.3%" y1="0%" x2="100%" y2="100%"><stop offset="20%" stop-color="#71194c" stop-opacity="1"></stop><stop offset="80%" stop-color="#30092d" stop-opacity="1"></stop></linearGradient></defs><defs><linearGradient id="grad2_0" x1="0%" y1="0%" x2="66.7%" y2="100%"><stop offset="20%" stop-color="#ff5060" stop-opacity="1"></stop><stop offset="80%" stop-color="#ff5060" stop-opacity="1"></stop></linearGradient></defs><defs><linearGradient id="grad2_1" x1="0%" y1="0%" x2="66.7%" y2="100%"><stop offset="20%" stop-color="#b92e5e" stop-opacity="1"></stop><stop offset="80%" stop-color="#ff5060" stop-opacity="1"></stop></linearGradient></defs><defs><linearGradient id="grad2_2" x1="0%" y1="0%" x2="66.7%" y2="100%"><stop offset="20%" stop-color="#b92e5e" stop-opacity="1"></stop><stop offset="80%" stop-color="#71194c" stop-opacity="1"></stop></linearGradient></defs><defs><linearGradient id="grad2_3" x1="0%" y1="0%" x2="66.7%" y2="100%"><stop offset="20%" stop-color="#30092d" stop-opacity="1"></stop><stop offset="80%" stop-color="#71194c" stop-opacity="1"></stop></linearGradient></defs><g transform="translate(900, 0)"><path d="M0 540.8C-43.2 495.5 -86.4 450.2 -142.5 438.4C-198.5 426.6 -267.3 448.3 -310.4 427.2C-353.4 406 -370.6 342 -404.5 293.9C-438.4 245.8 -488.9 213.5 -514.4 167.1C-539.9 120.8 -540.3 60.4 -540.8 0L0 0Z" fill="#4f113e"></path><path d="M0 405.6C-32.4 371.7 -64.8 337.7 -106.8 328.8C-148.9 320 -200.5 336.2 -232.8 320.4C-265 304.5 -278 256.5 -303.4 220.4C-328.8 184.3 -366.7 160.1 -385.8 125.3C-404.9 90.6 -405.3 45.3 -405.6 0L0 0Z" fill="#952257"></path><path d="M0 270.4C-21.6 247.8 -43.2 225.1 -71.2 219.2C-99.2 213.3 -133.7 224.2 -155.2 213.6C-176.7 203 -185.3 171 -202.3 146.9C-219.2 122.9 -244.4 106.7 -257.2 83.6C-269.9 60.4 -270.2 30.2 -270.4 0L0 0Z" fill="#dd3d61"></path><path d="M0 135.2C-10.8 123.9 -21.6 112.6 -35.6 109.6C-49.6 106.7 -66.8 112.1 -77.6 106.8C-88.3 101.5 -92.7 85.5 -101.1 73.5C-109.6 61.4 -122.2 53.4 -128.6 41.8C-135 30.2 -135.1 15.1 -135.2 0L0 0Z" fill="#ff5060"></path></g><g transform="translate(0, 600)"><path d="M0 -540.8C64.6 -547.1 129.2 -553.3 167.1 -514.4C205 -475.4 216.2 -391.2 257.4 -354.3C298.7 -317.5 370.1 -327.9 418.3 -303.9C466.4 -279.9 491.3 -221.4 507.9 -165C524.4 -108.6 532.6 -54.3 540.8 0L0 0Z" fill="#4f113e"></path><path d="M0 -405.6C48.5 -410.3 96.9 -415 125.3 -385.8C153.8 -356.5 162.1 -293.4 193.1 -265.8C224 -238.1 277.6 -245.9 313.7 -227.9C349.8 -209.9 368.5 -166.1 380.9 -123.8C393.3 -81.5 399.5 -40.7 405.6 0L0 0Z" fill="#952257"></path><path d="M0 -270.4C32.3 -273.5 64.6 -276.7 83.6 -257.2C102.5 -237.7 108.1 -195.6 128.7 -177.2C149.4 -158.7 185.1 -164 209.1 -151.9C233.2 -139.9 245.7 -110.7 253.9 -82.5C262.2 -54.3 266.3 -27.2 270.4 0L0 0Z" fill="#dd3d61"></path><path d="M0 -135.2C16.2 -136.8 32.3 -138.3 41.8 -128.6C51.3 -118.8 54 -97.8 64.4 -88.6C74.7 -79.4 92.5 -82 104.6 -76C116.6 -70 122.8 -55.4 127 -41.3C131.1 -27.2 133.2 -13.6 135.2 0L0 0Z" fill="#ff5060"></path></g></svg>