<svg id="visual" viewBox="0 0 900 600" width="900" height="600" xmlns="http://www.w3.org/2000/svg" xmlns:xlink="http://www.w3.org/1999/xlink" version="1.1"><rect x="0" y="0" width="900" height="600" fill="#041b2d"></rect><defs><linearGradient id="grad1_0" x1="33.3%" y1="0%" x2="100%" y2="100%"><stop offset="20%" stop-color="#3cc0fa" stop-opacity="1"></stop><stop offset="80%" stop-color="#3cc0fa" stop-opacity="1"></stop></linearGradient></defs><defs><linearGradient id="grad1_1" x1="33.3%" y1="0%" x2="100%" y2="100%"><stop offset="20%" stop-color="#3cc0fa" stop-opacity="1"></stop><stop offset="80%" stop-color="#2e83b1" stop-opacity="1"></stop></linearGradient></defs><defs><linearGradient id="grad1_2" x1="33.3%" y1="0%" x2="100%" y2="100%"><stop offset="20%" stop-color="#1a4c6c" stop-opacity="1"></stop><stop offset="80%" stop-color="#2e83b1" stop-opacity="1"></stop></linearGradient></defs><defs><linearGradient id="grad1_3" x1="33.3%" y1="0%" x2="100%" y2="100%"><stop offset="20%" stop-color="#1a4c6c" stop-opacity="1"></stop><stop offset="80%" stop-color="#041b2d" stop-opacity="1"></stop></linearGradient></defs><defs><linearGradient id="grad2_0" x1="0%" y1="0%" x2="66.7%" y2="100%"><stop offset="20%" stop-color="#3cc0fa" stop-opacity="1"></stop><stop offset="80%" stop-color="#3cc0fa" stop-opacity="1"></stop></linearGradient></defs><defs><linearGradient id="grad2_1" x1="0%" y1="0%" x2="66.7%" y2="100%"><stop offset="20%" stop-color="#2e83b1" stop-opacity="1"></stop><stop offset="80%" stop-color="#3cc0fa" stop-opacity="1"></stop></linearGradient></defs><defs><linearGradient id="grad2_2" x1="0%" y1="0%" x2="66.7%" y2="100%"><stop offset="20%" stop-color="#2e83b1" stop-opacity="1"></stop><stop offset="80%" stop-color="#1a4c6c" stop-opacity="1"></stop></linearGradient></defs><defs><linearGradient id="grad2_3" x1="0%" y1="0%" x2="66.7%" y2="100%"><stop offset="20%" stop-color="#041b2d" stop-opacity="1"></stop><stop offset="80%" stop-color="#1a4c6c" stop-opacity="1"></stop></linearGradient></defs><g transform="translate(900, 0)"><path d="M0 459.7C-59.9 453.1 -119.8 446.4 -175.9 424.7C-232 403 -284.4 366.3 -320.3 320.3C-356.3 274.3 -375.8 219.1 -396.3 164.2C-416.8 109.2 -438.3 54.6 -459.7 0L0 0Z" fill="#0f324b"></path><path d="M0 344.8C-44.9 339.8 -89.9 334.8 -131.9 318.5C-174 302.3 -213.3 274.7 -240.2 240.2C-267.2 205.8 -281.9 164.3 -297.3 123.1C-312.6 81.9 -328.7 41 -344.8 0L0 0Z" fill="#25678e"></path><path d="M0 229.9C-30 226.5 -59.9 223.2 -88 212.4C-116 201.5 -142.2 183.2 -160.2 160.2C-178.1 137.2 -187.9 109.6 -198.2 82.1C-208.4 54.6 -219.1 27.3 -229.9 0L0 0Z" fill="#36a1d5"></path><path d="M0 114.9C-15 113.3 -30 111.6 -44 106.2C-58 100.8 -71.1 91.6 -80.1 80.1C-89.1 68.6 -94 54.8 -99.1 41C-104.2 27.3 -109.6 13.7 -114.9 0L0 0Z" fill="#3cc0fa"></path></g><g transform="translate(0, 600)"><path d="M0 -459.7C56.6 -437.7 113.2 -415.6 160.7 -388C208.2 -360.4 246.6 -327.3 293.4 -293.4C340.3 -259.6 395.6 -225 424.7 -175.9C453.8 -126.9 456.8 -63.4 459.7 0L0 0Z" fill="#0f324b"></path><path d="M0 -344.8C42.5 -328.2 84.9 -311.7 120.5 -291C156.2 -270.3 185 -245.5 220.1 -220.1C255.2 -194.7 296.7 -168.7 318.5 -131.9C340.4 -95.2 342.6 -47.6 344.8 0L0 0Z" fill="#25678e"></path><path d="M0 -229.9C28.3 -218.8 56.6 -207.8 80.4 -194C104.1 -180.2 123.3 -163.7 146.7 -146.7C170.1 -129.8 197.8 -112.5 212.4 -88C226.9 -63.4 228.4 -31.7 229.9 0L0 0Z" fill="#36a1d5"></path><path d="M0 -114.9C14.2 -109.4 28.3 -103.9 40.2 -97C52.1 -90.1 61.7 -81.8 73.4 -73.4C85.1 -64.9 98.9 -56.2 106.2 -44C113.5 -31.7 114.2 -15.9 114.9 0L0 0Z" fill="#3cc0fa"></path></g></svg>