<svg xmlns="http://www.w3.org/2000/svg" version="1.1" xmlns:xlink="http://www.w3.org/1999/xlink" xmlns:svgjs="http://svgjs.dev/svgjs" width="1440" height="560" preserveAspectRatio="none" viewBox="0 0 1440 560"><g mask="url(&quot;#SvgjsMask2547&quot;)" fill="none"><rect width="1440" height="560" x="0" y="0" fill="url(&quot;#SvgjsLinearGradient2548&quot;)"></rect><path d="M1102.52 136.11 a147.44 147.44 0 1 0 294.88 0 a147.44 147.44 0 1 0 -294.88 0z" fill="rgba(118, 238, 255, 0.1)" class="triangle-float2"></path><path d="M-64.05 527.41 a124.28 124.28 0 1 0 248.56 0 a124.28 124.28 0 1 0 -248.56 0z" fill="rgba(118, 238, 255, 0.1)" class="triangle-float2"></path><path d="M79 479.64 a135.61 135.61 0 1 0 271.22 0 a135.61 135.61 0 1 0 -271.22 0z" fill="rgba(118, 238, 255, 0.1)" class="triangle-float2"></path><path d="M41.23 264.64 a167.61 167.61 0 1 0 335.22 0 a167.61 167.61 0 1 0 -335.22 0z" fill="rgba(118, 238, 255, 0.1)" class="triangle-float2"></path><path d="M1127.91 391.42 a146.18 146.18 0 1 0 292.36 0 a146.18 146.18 0 1 0 -292.36 0z" fill="rgba(118, 238, 255, 0.1)" class="triangle-float3"></path><path d="M630.09 239.07 a116.63 116.63 0 1 0 233.26 0 a116.63 116.63 0 1 0 -233.26 0z" fill="rgba(118, 238, 255, 0.1)" class="triangle-float3"></path></g><defs><mask id="SvgjsMask2547"><rect width="1440" height="560" fill="#ffffff"></rect></mask><linearGradient x1="15.28%" y1="-39.29%" x2="84.72%" y2="139.29%" gradientUnits="userSpaceOnUse" id="SvgjsLinearGradient2548"><stop stop-color="rgba(35, 64, 94, 1)" offset="0"></stop><stop stop-color="rgba(32, 52, 90, 1)" offset="1"></stop></linearGradient><style>
                @keyframes float1 {
                    0%{transform: translate(0, 0)}
                    50%{transform: translate(-10px, 0)}
                    100%{transform: translate(0, 0)}
                }

                .triangle-float1 {
                    animation: float1 5s infinite;
                }

                @keyframes float2 {
                    0%{transform: translate(0, 0)}
                    50%{transform: translate(-5px, -5px)}
                    100%{transform: translate(0, 0)}
                }

                .triangle-float2 {
                    animation: float2 4s infinite;
                }

                @keyframes float3 {
                    0%{transform: translate(0, 0)}
                    50%{transform: translate(0, -10px)}
                    100%{transform: translate(0, 0)}
                }

                .triangle-float3 {
                    animation: float3 6s infinite;
                }
            </style></defs></svg>