<svg id="visual" viewBox="0 0 900 600" width="900" height="600" xmlns="http://www.w3.org/2000/svg" xmlns:xlink="http://www.w3.org/1999/xlink" version="1.1"><path d="M0 55L75 55L150 61L225 43L300 37L375 37L450 37L525 37L600 37L675 67L750 43L825 49L900 61L900 0L825 0L750 0L675 0L600 0L525 0L450 0L375 0L300 0L225 0L150 0L75 0L0 0Z" fill="#ffa6bc"></path><path d="M0 109L75 103L150 103L225 91L300 67L375 79L450 91L525 85L600 73L675 103L750 73L825 91L900 91L900 59L825 47L750 41L675 65L600 35L525 35L450 35L375 35L300 35L225 41L150 59L75 53L0 53Z" fill="#fb93ab"></path><path d="M0 265L75 205L150 253L225 199L300 223L375 229L450 253L525 241L600 187L675 235L750 223L825 205L900 223L900 89L825 89L750 71L675 101L600 71L525 83L450 89L375 77L300 65L225 89L150 101L75 101L0 107Z" fill="#f6819a"></path><path d="M0 337L75 295L150 325L225 259L300 319L375 349L450 331L525 337L600 265L675 349L750 337L825 319L900 325L900 221L825 203L750 221L675 233L600 185L525 239L450 251L375 227L300 221L225 197L150 251L75 203L0 263Z" fill="#f06d88"></path><path d="M0 487L75 451L150 469L225 445L300 469L375 493L450 469L525 493L600 463L675 487L750 445L825 487L900 445L900 323L825 317L750 335L675 347L600 263L525 335L450 329L375 347L300 317L225 257L150 323L75 293L0 335Z" fill="#ea5976"></path><path d="M0 547L75 529L150 541L225 535L300 523L375 553L450 535L525 553L600 535L675 541L750 523L825 553L900 529L900 443L825 485L750 443L675 485L600 461L525 491L450 467L375 491L300 467L225 443L150 467L75 449L0 485Z" fill="#e34264"></path><path d="M0 601L75 601L150 601L225 601L300 601L375 601L450 601L525 601L600 601L675 601L750 601L825 601L900 601L900 527L825 551L750 521L675 539L600 533L525 551L450 533L375 551L300 521L225 533L150 539L75 527L0 545Z" fill="#db2551"></path></svg>